<svg width="300px" height="100px" viewBox="0 0 300 100" version="1.1" xmlns="http://www.w3.org/2000/svg" xmlns:xlink="http://www.w3.org/1999/xlink">
    <defs>
        <g>
            <path id='sa0' d="M190.4,24h2.11a27.11,27.11,0,0,1,4.71-6.59,6.89,6.89,0,0,1,4.8-1.94q2.7,0,2.7,1.23c0,.39-.7,1.45-2.11,3.18a44,44,0,0,0-3.19,4.37l3,.34,2,.25a77.35,77.35,0,0,1-7,10.64l-2.3-.18-1.89-.14L190.89,35q-2.64,4.26-4.44,7.62a43.34,43.34,0,0,0-2.74,6.15,16.36,16.36,0,0,0-1,5.3c0,2.26.9,3.38,2.7,3.38q1.86,0,4.88-2t8.06-6.11v3.29Q185.16,67,178.83,67a4.33,4.33,0,0,1-3.56-1.72,6.94,6.94,0,0,1-1.34-4.41,15.13,15.13,0,0,1,.76-4.32c.5-1.67,1.41-4.18,2.72-7.55-.46.39-.89.78-1.3,1.15l-1.13,1-1.1,1-1.18,1.06V49.86q5.15-4.3,12.45-15.15c-.49,0-.94-.06-1.37-.07s-.93,0-1.52,0A16.92,16.92,0,0,0,178,35c-.4.09-.76.2-1.11.31a2.62,2.62,0,0,1-.71.18c-.13,0-.19-.1-.19-.3q0-1.62,2-4.85A18,18,0,0,1,181,26.28a7.51,7.51,0,0,1,3.53-1.79A28.36,28.36,0,0,1,190.4,24Z" />
            <path id='sa1' d="M157.65,46.14q-7.11,9.4-10.82,13.38t-6.05,4A4.79,4.79,0,0,1,137.35,62a10.1,10.1,0,0,1-2.43-4.17,18,18,0,0,1-.86-5.61,15.18,15.18,0,0,1,.37-3.53,13.71,13.71,0,0,1,1.4-3.46,31,31,0,0,1,2.72-4.09c1.12-1.48,2.51-3.14,4.14-5l2.48-2.89a5.76,5.76,0,0,1,2-1.59,8.34,8.34,0,0,1,3.11-.42,10.49,10.49,0,0,1,3,.42c1,.28,1.42.56,1.42.86a7.9,7.9,0,0,1-1.44,3.18,37,37,0,0,1-4.66,5.62,64.77,64.77,0,0,1-7.43,6.49,15.84,15.84,0,0,0-.93,4.42c0,1.4.54,2.11,1.62,2.11a4.35,4.35,0,0,0,2-1c.91-.67,2.46-2,4.63-3.87s4.13-3.61,5.86-5.08a34.17,34.17,0,0,0,4.44-5c1.68-2.21,3.05-3.87,4.09-5q3.63-3.82,5-5a3.94,3.94,0,0,1,2.55-1.15,1.67,1.67,0,0,1,1.59.73,7,7,0,0,1,.42,3,5.78,5.78,0,0,1-.2,1.66,7.62,7.62,0,0,1-.81,1.65q-.62,1-2.47,3.7l-4.42,6.37a26.1,26.1,0,0,0-2.4,4.29,9.74,9.74,0,0,0-1,3.51q0,2.55,2,2.55a7.65,7.65,0,0,0,3.87-1.37c1.48-.92,3.73-2.57,6.77-5v3.29q-5.73,5.3-8.48,7.7A36.6,36.6,0,0,1,160.39,64a7.43,7.43,0,0,1-3.82,1.22q-4.12,0-4.12-4.9a15.11,15.11,0,0,1,1.22-5Q154.9,52.12,157.65,46.14Z" />
            <path id='sa2' d="M134.65,49.37v3.29a25.8,25.8,0,0,1-5.2,3.92,11.59,11.59,0,0,1-5.64.79q-6.37,7.54-11.23,7.55a7.8,7.8,0,0,1-5-1.82,12.62,12.62,0,0,1-3.6-5,17.56,17.56,0,0,1-1.35-7,14.78,14.78,0,0,1,2.08-7,31.24,31.24,0,0,1,5.4-7.14,30.17,30.17,0,0,1,7.08-5.34,14.92,14.92,0,0,1,7-2,7.77,7.77,0,0,1,3.63.71,2.19,2.19,0,0,1,1.33,2A3.67,3.67,0,0,1,128,34.61a4.2,4.2,0,0,1,2.55,1.3,5.75,5.75,0,0,1,.69,3.31,20.93,20.93,0,0,1-1.11,5.94,29.6,29.6,0,0,1-3,6.71l.88.89h.73a3.55,3.55,0,0,0,1.65-.42,10.77,10.77,0,0,0,1.44-.88C132.28,51.15,133.21,50.45,134.65,49.37Zm-10.1-12.89q-4.08,2.45-7,4.43a34.25,34.25,0,0,0-4.9,4A10.83,10.83,0,0,0,110,49q-1.22,5.49-1.22,5.93,0,3.24,4.51,3.24,2.12,0,7.06-3.63a13.12,13.12,0,0,1-.83-4.41,17,17,0,0,1,1.27-6.3A52,52,0,0,1,124.55,36.48Z" />
            <path id='sa3' d="M103.12,49.57v3.19Q98,56,95.08,56a12,12,0,0,1-3.43-.54,55,55,0,0,1-7.58,8.19,10,10,0,0,1-6.35,2.6q-3.68,0-5.66-3.87a20.88,20.88,0,0,1-2-9.61q0-7.8,4.71-17A94.41,94.41,0,0,1,86.13,18.55,105.14,105.14,0,0,1,99,5.29Q105.23,0,107.43,0c1.41,0,2.11,1,2.11,2.9q0,12.84-32.95,44.81c-.06.59-.1,1.75-.1,3.49q0,6.76,3.63,6.76A4.59,4.59,0,0,0,83,56.85a47.16,47.16,0,0,0,4.44-4.39,11,11,0,0,1-1.18-3.92,10.39,10.39,0,0,1,2.21-5.84,26.5,26.5,0,0,1,5-5.41Q96.3,35,97.58,35c1.34,0,2,1,2,2.89a15.49,15.49,0,0,1-1.15,5.29,53.62,53.62,0,0,1-3.36,7.07,15.32,15.32,0,0,0,1.32,1,2.76,2.76,0,0,0,1.47.32A9.82,9.82,0,0,0,103.12,49.57ZM78.21,42.21A48,48,0,0,0,83.33,37q2.58-3,7.53-9.24,4.76-6,7.48-10a68,68,0,0,0,4.09-6.64,10.22,10.22,0,0,0,1.38-3.63c0-.49-.13-.74-.4-.74q-1.08,0-4.48,3.56a85.32,85.32,0,0,0-7.77,9.73q-6,8.53-8.73,12.85A38.46,38.46,0,0,0,78.21,42.21Z" />
            <path id='sa4' d="M64.58,33.19s1.67,0,2.28,0,1.25,0,1.94.07a30.79,30.79,0,0,1,3.4.1c.41.06.62.39.62,1a3.25,3.25,0,0,1-.76,1.4q-.77,1-2.68,3.33t-3.72,4.73l-7.21.59-8.63.29s-6.8.2-8.63.2-5.13-.06-11.67-.2c-1.29,0-3.17-.06-5.64-.19-4.61-.24-3.78-.4-4.61-.32a10.45,10.45,0,0,1-3.82-.42,1.33,1.33,0,0,1-.54-.32,1.89,1.89,0,0,1-.44-1.34c0-2.75,4.51-6.62,4.51-6.62a16.27,16.27,0,0,1,4.61-3.19,13.23,13.23,0,0,1,8.23-.74c0,.06-.79.1-3.06.54a7,7,0,0,0-2,.62A3.09,3.09,0,0,0,25.32,34c-.17.29-.31.54-.21.73.19.37,1.09.12,2.62,0,.86-.06.4,0,3.14,0l2.87-.08" />
            <path id='sa5' d="M29.52,44.38c-1.05,1.14-2.32,2.49-3.83,4s-2.92,3-4.26,4.32S18.94,55.19,18,56.12s-1.76,1.71-2.38,2.33q-5.44,5.29-7.08,6.91a29.56,29.56,0,0,1-3.46,2.92,5.85,5.85,0,0,1-3.33,1.3C.57,69.58,0,69.06,0,68s.82-2.91,2.45-5.29A34.56,34.56,0,0,1,8,56.39c2.06-1.83,3.75-2.75,5-2.75a3.86,3.86,0,0,1,1.52.49L33.74,34.28S44,24.49,48.35,20.62a174.88,174.88,0,0,1,13.85-11A133.84,133.84,0,0,1,77.72,0a7.16,7.16,0,0,1,1.62,4.41,10.19,10.19,0,0,1-1.25,4.42q-1.26,2.49-5.3,9.39c-2.7,4.59-8.21,14.63-8.21,14.63L58.45,44.08q-5.75,10.79-5.74,12.16c0,1.34.7,2,2.11,2q1,0,8.53-4.31L63,56.54c-2.68,2-4.76,3.62-6.25,4.78s-2.78,2.12-3.88,2.89a16.25,16.25,0,0,1-3,1.72,7.08,7.08,0,0,1-2.72.56A4.68,4.68,0,0,1,43.93,65a5.62,5.62,0,0,1-1.56-4.25,9.39,9.39,0,0,1,.83-3.21c.56-1.39,1.15-2.72,1.79-4s2.25-4.34,4.83-9.17L56.44,33s3.37-5.74,4.53-7.7,2.44-4.09,3.83-6.4S67.38,14.6,68.38,13s2.1-3.41,3.31-5.44q-3.54,2.2-7.21,4.9T56.19,19Q51.58,22.76,48,26c-2.38,2.18-7.45,7.24-7.45,7.24Z" />
        </g>
    </defs>
    <g>
        <path id="sl0" d="M187.2,18c-9.2,3.9,2.1,25.9,4,31.8c2,6,1.6,26.3,8.1,28.7c6.1,2.3,6.3-9.6,6-12.9c-0.8-7.3-4.5-14.2-6.7-21.2
		C197.6,41.6,190.4,16.6,187.2,18z" />
        <path id="sl1" d="M153.1,28.8c-7.8,2-3.8,19.5-3,24.7c0.5,3.3,1,6.5,0.9,9.9c-0.1,4.1-1.9,11.2,0.3,15.1c2.9,5.1,7.2,0.3,9-3.7
		c2.8-6.3-0.3-13.3-1.7-19.7c-1.2-6-2.3-10.8-2.2-16.9C156.5,36,157.2,27.7,153.1,28.8z" />
        <path id="sl2" d="M104.4,24.6c-2.8,2,2.2,20.1,2.6,23.6c0.4,3.4,1.3,6.9,1.2,10.4c-0.1,2.1-1.6,5.2-0.9,7.3c2,5.4,5.3,0.4,8.2-2.1
		c8.3-7.2,11.1-17,4.1-26.3C118,35.2,107.6,22.2,104.4,24.6z" />
        <path id="sl3" d="M6,79.4c-2.4,1-5.7,2.8-5.9,5.7c-0.5,6.4,1.4,1,1.7,0.9c3.2-1.3,2.5-2.3,6.5-0.4c2.5,1.2,4.6,2.9,7,4
		c8,3.6,15.8,4,24.3,2.9c2.8-0.4,14.6,1.4,15.9-2.3c-1.7,4,0.5,3.2,4.1,3.4c2.6,0.1,5.7,0.4,8.3-0.1c1.4-0.3,9.4-3,9.3-3
		c0.2-0.1-7.6-7.4-8.7-8c-6.9-4.1-15.1-1.6-22.6-1.2C44,81.4,3.6,86.9,6.5,79.2C6.8,78.9,7.2,78.5,6,79.4z" />
        <path id="sl4" d="M47.6,37.3c-7,4.5-15.7,5.6-23.7,6.6c-2.7,0.4-11.7-1-8.8,2.7c2.7,3.4,10.6,2.3,13.7,4.8c5.6,4.7-4.6,6.6-3.4,8.7
		c0.1,0.2,20.7-6.5,22.5-7c12.6,1,17-2.7,13.3-11.1C59.1,40.8,50.1,35.7,47.6,37.3z" />
        <path id="sl5" d="M33.1,0.7c-2.9,0.9-5.8,2.2-8.8,2.5c-1.9,0.2-4.3-1-6.1-0.1c-4,2.1-0.5,3.3,2,4.6c7.3,3.9,14.2,9.8,22.8,9.5
		c5.7-0.2,19-2.8,12.5-10.7C51,1.1,39.5-1.3,33.1,0.7z" />
    </g>
</svg>